<?xml version="1.0" standalone="no"?>
<!DOCTYPE svg PUBLIC "-//W3C//DTD SVG 1.1//EN" "http://www.w3.org/Graphics/SVG/1.1/DTD/svg11.dtd" >
<svg xmlns="http://www.w3.org/2000/svg">
<metadata></metadata>
<defs>
<font id="fs_elliotthin" horiz-adv-x="1179" >
<font-face units-per-em="2048" ascent="1536" descent="-512" />
<missing-glyph horiz-adv-x="491" />
<glyph unicode="&#xfb01;" horiz-adv-x="1093" d="M63 940v45h228v189q0 128 86 210t217 82q120 0 268 -49l-14 -43q-146 47 -250 47q-111 0 -184.5 -70t-73.5 -177v-189h563v-985h-49v940h-514v-940h-49v940h-228z" />
<glyph unicode="&#xfb02;" horiz-adv-x="1191" d="M63 940v45h228v189q0 131 85 211.5t220 80.5q112 0 307 -34v-1268q0 -66 39 -105t105 -39q38 0 104 17l10 -45q-77 -17 -119 -17q-88 0 -138 50.5t-50 138.5v1229q-150 28 -258 28q-113 0 -184.5 -67.5t-71.5 -179.5v-189h322v-45h-322v-940h-49v940h-228z" />
<glyph unicode="&#xfb03;" horiz-adv-x="1689" d="M63 940v45h228v229q0 110 71 181t181 71q83 0 168 -24l-11 -45q-80 24 -153 24q-91 0 -149 -58.5t-58 -150.5v-227h547v189q0 128 86 210t217 82q120 0 268 -49l-14 -43q-146 47 -252 47q-109 0 -182.5 -70t-73.5 -177v-189h563v-985h-49v940h-514v-940h-49v940h-547 v-940h-49v940h-228z" />
<glyph unicode="&#xfb04;" horiz-adv-x="1787" d="M63 940v45h228v229q0 110 71 181t181 71q83 0 168 -24l-11 -45q-80 24 -153 24q-91 0 -149 -58.5t-58 -150.5v-227h547v189q0 131 85 211.5t218 80.5q114 0 309 -34v-1268q0 -66 38.5 -105t104.5 -39q39 0 105 17l10 -45q-77 -17 -119 -17q-88 0 -138 50.5t-50 138.5 v1229q-150 28 -258 28q-115 0 -185.5 -67.5t-70.5 -179.5v-189h321v-45h-321v-940h-49v940h-547v-940h-49v940h-228z" />
<glyph horiz-adv-x="0" />
<glyph horiz-adv-x="0" />
<glyph horiz-adv-x="682" />
<glyph unicode="&#xd;" horiz-adv-x="491" />
<glyph unicode=" "  horiz-adv-x="491" />
<glyph unicode="&#x09;" horiz-adv-x="491" />
<glyph unicode="&#xa0;" horiz-adv-x="491" />
<glyph unicode="!" horiz-adv-x="497" d="M197 37q0 23 14 38t37 15q24 0 38.5 -14.5t14.5 -38.5q0 -25 -14 -39t-39 -14q-23 0 -37 14t-14 39zM223 1376h51l-4 -979h-43z" />
<glyph unicode="&#x22;" horiz-adv-x="733" d="M174 1376h51l-6 -401h-39zM510 1376h51l-6 -401h-39z" />
<glyph unicode="#" horiz-adv-x="1312" d="M33 418v45h311l86 450h-303v45h311l80 422l45 -4l-78 -418h447l82 422l43 -4l-78 -418h301v-45h-309l-86 -450h301v-45h-309l-82 -422l-43 4l77 418h-448l-80 -422l-45 4l78 418h-301zM389 463h449l86 450h-449z" />
<glyph unicode="$" d="M199 164l16 43q213 -90 373 -90q156 0 249 70t93 190q0 79 -40 135t-103.5 87t-140.5 54.5t-154.5 49t-141 59.5t-103.5 96.5t-40 149.5q0 128 98 208.5t262 86.5v335h45v-335q139 -6 328 -82l-16 -43q-191 79 -332 79q-152 0 -243 -68t-91 -181q0 -78 40 -133t103.5 -85 t140.5 -53.5t154.5 -49t141 -60t103.5 -98t40 -152.5q0 -132 -101 -215.5t-268 -87.5v-336h-45v336q-162 3 -368 90z" />
<glyph unicode="%" horiz-adv-x="1769" d="M113 1032q0 162 87.5 265.5t225.5 103.5t226.5 -104t88.5 -265q0 -162 -88.5 -265t-226.5 -103t-225.5 102.5t-87.5 265.5zM156 1032q0 -147 75.5 -237t194.5 -90q121 0 196.5 90t75.5 237q0 146 -76 237t-196 91q-119 0 -194.5 -91t-75.5 -237zM352 12l1032 1377l33 -25 l-1032 -1376zM1028 344q0 161 88.5 265t226.5 104t226 -104t88 -265q0 -163 -88 -266t-226 -103t-226.5 103.5t-88.5 265.5zM1071 344q0 -147 75.5 -237.5t196.5 -90.5q119 0 195 90.5t76 237.5q0 146 -76 237t-195 91q-120 0 -196 -91t-76 -237z" />
<glyph unicode="&#x26;" horiz-adv-x="1282" d="M111 362q0 122 86.5 226t259.5 200q-54 55 -81.5 87t-59.5 76.5t-45 86t-13 88.5q0 121 84.5 198t218.5 77q124 0 204.5 -72.5t80.5 -185.5q0 -99 -70.5 -181t-247.5 -182l449 -483q100 168 100 360h45q0 -218 -110 -397l241 -260h-61l-209 223q-91 -119 -206 -183.5 t-236 -64.5q-189 0 -309.5 108.5t-120.5 278.5zM160 362q0 -151 107 -246.5t276 -95.5q113 0 218 61.5t189 176.5l-463 500q-163 -90 -245 -187t-82 -209zM305 1124q0 -76 47 -144t148 -167q163 89 231 164t68 164q0 94 -67 154.5t-171 60.5q-114 0 -185 -64t-71 -168z" />
<glyph unicode="'" horiz-adv-x="399" d="M174 1376h51l-6 -401h-39z" />
<glyph unicode="(" horiz-adv-x="659" d="M193 590q0 248 86 471t251 401l35 -28q-159 -168 -242 -384.5t-83 -459.5t83 -459.5t242 -384.5l-35 -29q-165 176 -251 399.5t-86 473.5z" />
<glyph unicode=")" horiz-adv-x="659" d="M94 -254q160 168 243 384.5t83 459.5t-83 459.5t-243 384.5l35 28q165 -177 251.5 -400t86.5 -472q0 -248 -86.5 -471.5t-251.5 -401.5z" />
<glyph unicode="*" horiz-adv-x="985" d="M111 1083l12 39l348 -112v366h43v-366l348 112l15 -39l-351 -116l217 -295l-34 -25l-215 297l-215 -297l-35 25l215 295z" />
<glyph unicode="+" d="M129 567v45h438v439h45v-439h439v-45h-439v-438h-45v438h-438z" />
<glyph unicode="," horiz-adv-x="464" d="M98 -297q161 118 152 285q-30 -8 -53 8t-23 45q0 25 16 41t41 16q33 0 51.5 -28t18.5 -78q0 -94 -47.5 -178t-134.5 -142z" />
<glyph unicode="-" horiz-adv-x="655" d="M63 481v45h529v-45h-529z" />
<glyph unicode="." horiz-adv-x="464" d="M174 41q0 25 16 41t41 16q26 0 42 -16t16 -41q0 -26 -16 -41.5t-42 -15.5q-25 0 -41 15.5t-16 41.5z" />
<glyph unicode="/" horiz-adv-x="786" d="M59 -256l625 1706l43 -14l-625 -1706z" />
<glyph unicode="0" d="M111 688q0 213 59 375t168 250t252 88t252 -88t168 -250t59 -375t-59 -375t-168 -250t-252 -88t-252 88t-168 250t-59 375zM160 688q0 -302 117.5 -485t312.5 -183t312.5 183t117.5 485t-117.5 485t-312.5 183t-312.5 -183t-117.5 -485z" />
<glyph unicode="1" d="M254 1126l432 250h43v-1376h-49v1321l-404 -234z" />
<glyph unicode="2" d="M129 0v35l594 594q182 182 182 383q0 152 -97.5 248t-254.5 96q-169 0 -371 -127l-24 41q209 131 399 131q175 0 286 -108t111 -279q0 -106 -49.5 -212t-142.5 -198l-557 -559h766v-45h-842z" />
<glyph unicode="3" d="M141 74l21 43q204 -97 393 -97q161 0 264 91.5t103 236.5q0 148 -120.5 241t-312.5 93h-67v45h67q177 0 288.5 88.5t111.5 228.5q0 138 -93 225t-241 87q-174 0 -360 -88l-21 43q196 90 383 90q168 0 274.5 -99t106.5 -255q0 -125 -79 -217t-210 -123q148 -35 235 -133 t87 -228q0 -164 -115.5 -267.5t-298.5 -103.5q-205 0 -416 99z" />
<glyph unicode="4" d="M80 356v39l702 981h45v-975h242v-45h-242v-356h-47v356h-700zM137 401h643v895z" />
<glyph unicode="5" d="M160 90l22 41q187 -111 373 -111q182 0 290.5 101.5t108.5 265.5q0 170 -107 269.5t-296 99.5q-138 0 -309 -41v661h710v-45h-663v-563q146 31 268 31q208 0 326 -111.5t118 -300.5q0 -183 -122.5 -297.5t-323.5 -114.5q-195 0 -395 115z" />
<glyph unicode="6" d="M158 592q0 389 136 599t394 210q155 0 301 -76l-20 -41q-147 72 -281 72q-239 0 -363 -201.5t-118 -585.5q37 128 153 207.5t265 79.5q193 0 310.5 -120t117.5 -316q0 -189 -124 -317t-306 -128q-217 0 -341 159t-124 458zM223 459q0 -192 112.5 -315.5t287.5 -123.5 q161 0 272 115.5t111 284.5q0 177 -105 284t-278 107q-167 0 -283.5 -102t-116.5 -250z" />
<glyph unicode="7" d="M160 1331v45h811v-35l-582 -1341h-53l579 1331h-755z" />
<glyph unicode="8" d="M141 338q0 141 98 239.5t273 127.5q-149 27 -243.5 121t-94.5 229q0 149 118 247.5t298 98.5t298 -98.5t118 -247.5q0 -135 -94.5 -229t-243.5 -121q175 -29 272.5 -127.5t97.5 -239.5q0 -161 -125 -262t-323 -101t-323.5 101t-125.5 262zM190 340q0 -142 111.5 -231 t288.5 -89t288 89t111 231q0 138 -106 227.5t-293 114.5q-187 -25 -293.5 -114.5t-106.5 -227.5zM223 1053q0 -133 102 -217.5t265 -108.5q163 24 264.5 108.5t101.5 217.5q0 130 -104.5 216.5t-261.5 86.5t-262 -86.5t-105 -216.5z" />
<glyph unicode="9" d="M127 956q0 189 124 317t306 128q217 0 341 -159t124 -458q0 -389 -136 -599t-394 -210q-156 0 -302 76l21 41q147 -72 281 -72q239 0 363 201.5t118 585.5q-37 -128 -153 -207.5t-265 -79.5q-193 0 -310.5 120t-117.5 316zM174 956q0 -177 105 -284t278 -107 q167 0 283 102.5t116 250.5q0 192 -112 315t-287 123q-161 0 -272 -115.5t-111 -284.5z" />
<glyph unicode=":" horiz-adv-x="497" d="M190 41q0 25 16.5 41t41.5 16q26 0 41.5 -16t15.5 -41q0 -26 -15.5 -41.5t-41.5 -15.5q-25 0 -41.5 15.5t-16.5 41.5zM190 944q0 25 16.5 41t41.5 16q26 0 41.5 -16t15.5 -41q0 -26 -15.5 -41.5t-41.5 -15.5q-25 0 -41.5 15.5t-16.5 41.5z" />
<glyph unicode=";" horiz-adv-x="497" d="M115 -297q160 117 151 285q-30 -8 -53 8t-23 45q0 25 16.5 41t41.5 16q33 0 51 -28t18 -78q0 -94 -47.5 -178t-134.5 -142zM190 944q0 25 16.5 41t41.5 16q26 0 41.5 -16t15.5 -41q0 -26 -15.5 -41.5t-41.5 -15.5q-25 0 -41.5 15.5t-16.5 41.5z" />
<glyph unicode="&#x3c;" d="M129 567v45l909 426l19 -43l-867 -405l867 -406l-19 -43z" />
<glyph unicode="=" d="M129 367v47h922v-47h-922zM129 766v47h922v-47h-922z" />
<glyph unicode="&#x3e;" d="M123 184l866 406l-866 405l18 43l910 -426v-45l-910 -426z" />
<glyph unicode="?" horiz-adv-x="919" d="M80 1278q174 123 362 123q161 0 264 -99.5t103 -254.5q0 -60 -19.5 -115t-51.5 -98t-70 -83.5t-76.5 -79t-70 -77t-52 -85t-20.5 -95.5v-17h-43v19q0 61 26 118t65.5 100t85.5 91.5t85.5 92.5t65.5 103t26 123q0 135 -90.5 223.5t-229.5 88.5q-168 0 -336 -119zM375 37 q0 24 14.5 38.5t38.5 14.5q23 0 38 -15t15 -38t-15 -38t-38 -15q-24 0 -38.5 14.5t-14.5 38.5z" />
<glyph unicode="@" horiz-adv-x="1968" d="M127 492q0 198 66 367.5t182 289t280 187t355 67.5q238 0 427.5 -103t296.5 -288.5t107 -419.5q0 -245 -96 -396t-254 -151q-86 0 -143 55.5t-58 141.5q-44 -92 -125.5 -144.5t-189.5 -52.5q-165 0 -273 126.5t-108 320.5t108 320t273 126q109 0 189 -51.5t122 -143.5 l6 175h41v-650q0 -80 43.5 -129t116.5 -49q135 0 219 137.5t84 362.5q0 222 -100.5 397.5t-280 273t-405.5 97.5q-242 0 -432.5 -110t-297 -307.5t-106.5 -448.5q0 -188 62 -349t172 -274.5t265.5 -177.5t336.5 -64q235 0 514 150l22 -37q-289 -158 -536 -158 q-255 0 -456.5 116t-314 323.5t-112.5 470.5zM643 492q0 -175 94.5 -288.5t241.5 -113.5q138 0 222.5 91.5t84.5 230.5v159q0 142 -84 233t-223 91q-148 0 -242 -113t-94 -290z" />
<glyph unicode="A" horiz-adv-x="1347" d="M76 0l573 1376h49l572 -1376h-53l-181 434h-725l-180 -434h-55zM330 479h688l-344 830z" />
<glyph unicode="B" horiz-adv-x="1312" d="M240 0v1376h508q163 0 267.5 -97t104.5 -249q0 -110 -62 -196.5t-171 -124.5q132 -30 207 -124t75 -223q0 -164 -109 -263t-280 -99h-540zM289 45h487q152 0 248 89.5t96 230.5q0 140 -96 228.5t-248 88.5h-487v-637zM289 727h456q143 0 234.5 84.5t91.5 216.5 q0 133 -91.5 218t-234.5 85h-456v-604z" />
<glyph unicode="C" horiz-adv-x="1312" d="M127 688q0 209 81 371t228 252t336 90q224 0 430 -144l-24 -40q-190 139 -404 139q-265 0 -430.5 -185.5t-165.5 -482.5t165.5 -482.5t430.5 -185.5q213 0 404 140l24 -41q-206 -144 -430 -144q-189 0 -336 90t-228 252t-81 371z" />
<glyph unicode="D" horiz-adv-x="1445" d="M240 0v1376h389q308 0 499 -190.5t191 -497.5q0 -201 -86.5 -357.5t-243.5 -243.5t-360 -87h-389zM291 45h336q140 0 259.5 47.5t203.5 132t131 204t47 259.5t-47 259.5t-131 204t-203.5 132t-259.5 47.5h-336v-1286z" />
<glyph unicode="E" horiz-adv-x="1214" d="M240 0v1376h813v-45h-762v-604h696v-45h-696v-637h794v-45h-845z" />
<glyph unicode="F" horiz-adv-x="1181" d="M240 0v1376h813v-45h-762v-653h696v-45h-696v-633h-51z" />
<glyph unicode="G" horiz-adv-x="1413" d="M127 688q0 155 48.5 287.5t134.5 226t209.5 146.5t268.5 53q218 0 447 -131l-23 -41q-221 127 -421 127q-180 0 -320.5 -85t-217.5 -237t-77 -346q0 -193 79.5 -345.5t223 -237.5t326.5 -85q202 0 399 93v505h-387v46h434v-582q-222 -107 -446 -107q-198 0 -352.5 90.5 t-240 253t-85.5 369.5z" />
<glyph unicode="H" horiz-adv-x="1544" d="M240 0v1376h51v-649h962v649h50v-1376h-50v682h-962v-682h-51z" />
<glyph unicode="I" horiz-adv-x="530" d="M240 0v1376h51v-1376h-51z" />
<glyph unicode="J" horiz-adv-x="886" d="M63 8l13 45q112 -33 225 -33q131 0 214 83.5t83 215.5v1057h49v-1059q0 -151 -95.5 -246.5t-246.5 -95.5q-103 0 -242 33z" />
<glyph unicode="K" horiz-adv-x="1316" d="M240 0v1376h49v-811l821 811h68l-654 -643l684 -733h-65l-654 698l-200 -196v-502h-49z" />
<glyph unicode="L" horiz-adv-x="1083" d="M240 0v1376h51v-1331h727v-45h-778z" />
<glyph unicode="M" horiz-adv-x="1724" d="M240 0v1376h53l569 -768l568 768h53v-1376h-47v1305l-555 -754h-37l-555 754v-1305h-49z" />
<glyph unicode="N" horiz-adv-x="1544" d="M240 0v1376h53l962 -1304v1304h48v-1376h-54l-960 1305v-1305h-49z" />
<glyph unicode="O" horiz-adv-x="1544" d="M127 688q0 155 48 287.5t132.5 226t204.5 146.5t260 53q186 0 333.5 -90.5t229.5 -253.5t82 -369t-82 -369t-229.5 -253.5t-333.5 -90.5q-140 0 -260 53t-204.5 146.5t-132.5 226t-48 287.5zM178 688q0 -192 75.5 -344.5t211 -238t307.5 -85.5t307.5 85.5t211 238 t75.5 344.5t-75.5 344.5t-211 238t-307.5 85.5t-307.5 -85.5t-211 -238t-75.5 -344.5z" />
<glyph unicode="P" horiz-adv-x="1247" d="M240 0v1376h467q188 0 309 -113.5t121 -291.5t-121 -292t-309 -114h-418v-565h-49zM289 612h416q168 0 275 100.5t107 258.5q0 159 -107 259.5t-275 100.5h-416v-719z" />
<glyph unicode="Q" horiz-adv-x="1544" d="M127 688q0 155 48 287.5t132.5 226t204.5 146.5t260 53q186 0 333.5 -90.5t229.5 -253.5t82 -369q0 -219 -92 -386.5t-252 -252.5l375 -276l-29 -37l-393 289q-123 -50 -254 -50q-140 0 -260 53t-204.5 146.5t-132.5 226t-48 287.5zM178 688q0 -192 75.5 -344.5t211 -238 t307.5 -85.5t307.5 85.5t211 238t75.5 344.5t-75.5 344.5t-211 238t-307.5 85.5t-307.5 -85.5t-211 -238t-75.5 -344.5z" />
<glyph unicode="R" horiz-adv-x="1312" d="M240 0v1376h467q183 0 299 -109t116 -280q0 -161 -105.5 -268t-275.5 -117l430 -602h-59l-426 598h-397v-598h-49zM289 645h416q162 0 264 94.5t102 247.5q0 152 -102.5 248t-263.5 96h-416v-686z" />
<glyph unicode="S" horiz-adv-x="1165" d="M127 82l16 43q269 -105 439 -105q184 0 295.5 84t111.5 220q0 67 -24 119.5t-65 86.5t-95.5 62.5t-116 46.5t-126.5 39t-126.5 40t-116 50t-95.5 68t-65 94.5t-24 130.5q0 151 124 245.5t325 94.5q184 0 405 -90l-16 -43q-215 88 -389 88q-179 0 -289.5 -82t-110.5 -213 q0 -73 29 -128t78.5 -90t113.5 -61.5t135 -47.5t142 -42.5t135 -51.5t113.5 -69.5t78.5 -102t29 -144.5q0 -156 -125 -252.5t-329 -96.5q-203 0 -457 107z" />
<glyph unicode="T" horiz-adv-x="1214" d="M63 1331v45h1086v-45h-518v-1331h-49v1331h-519z" />
<glyph unicode="U" horiz-adv-x="1544" d="M223 510v866h51v-866q0 -214 141.5 -352t356.5 -138t356.5 138t141.5 352v866h49v-866q0 -154 -71 -276.5t-196 -190.5t-280 -68q-236 0 -392.5 151t-156.5 384z" />
<glyph unicode="V" horiz-adv-x="1347" d="M76 1376h55l543 -1306l543 1306h53l-572 -1376h-49z" />
<glyph unicode="W" horiz-adv-x="2035" d="M100 1376h54l417 -1306l420 1306h53l418 -1306l420 1306h51l-442 -1376h-53l-420 1307l-420 -1307h-53z" />
<glyph unicode="X" horiz-adv-x="1363" d="M109 0l542 705l-518 671h60l489 -635l489 635h60l-518 -671l542 -705h-59l-514 668l-514 -668h-59z" />
<glyph unicode="Y" horiz-adv-x="1185" d="M59 1376h60l473 -710l475 710h57l-506 -758v-618h-51v618z" />
<glyph unicode="Z" horiz-adv-x="1263" d="M127 0v33l917 1298h-892v45h960v-35l-915 -1296h940v-45h-1010z" />
<glyph unicode="[" horiz-adv-x="659" d="M256 -264v1708h309v-45h-262v-1618h262v-45h-309z" />
<glyph unicode="\" horiz-adv-x="786" d="M59 1436l43 14l625 -1706l-43 -14z" />
<glyph unicode="]" horiz-adv-x="659" d="M96 -219h260v1618h-260v45h307v-1708h-307v45z" />
<glyph unicode="^" d="M141 465l426 911h45l426 -911l-43 -19l-405 867l-406 -867z" />
<glyph unicode="_" horiz-adv-x="983" d="M0 -240h983v-45h-983v45z" />
<glyph unicode="`" horiz-adv-x="491" d="M-4 1376l27 39l313 -215l-23 -31z" />
<glyph unicode="a" horiz-adv-x="1069" d="M113 256q0 153 117 237.5t325 84.5q129 0 258 -33v155q0 117 -80.5 191t-208.5 74q-159 0 -331 -72l-17 41q180 76 350 76q148 0 241 -86.5t93 -223.5v-569q0 -52 30 -81.5t83 -29.5q17 0 57 9l8 -45q-52 -9 -71 -9q-69 0 -110.5 42t-41.5 112v78q-47 -107 -147 -169.5 t-226 -62.5q-139 0 -234 81t-95 200zM162 258q0 -100 81.5 -170t202.5 -70q163 0 265 104.5t102 270.5v111q-129 33 -256 33q-187 0 -291 -74t-104 -205z" />
<glyph unicode="b" horiz-adv-x="1153" d="M193 0v1442h49v-664q51 111 145 171.5t217 60.5q191 0 313.5 -145.5t122.5 -372.5q0 -226 -123 -371.5t-313 -145.5q-123 0 -218 61t-146 171l-7 -207h-40zM242 395q0 -165 100 -270t258 -105q170 0 280.5 133t110.5 339q0 207 -110.5 340t-280.5 133q-158 0 -258 -105.5 t-100 -271.5v-193z" />
<glyph unicode="c" horiz-adv-x="985" d="M113 492q0 228 129.5 373t332.5 145q168 0 318 -109l-25 -39q-139 103 -290 103q-183 0 -299.5 -132t-116.5 -341q0 -207 116.5 -339.5t299.5 -132.5q149 0 290 101l25 -39q-152 -107 -318 -107q-203 0 -332.5 145t-129.5 372z" />
<glyph unicode="d" horiz-adv-x="1153" d="M113 492q0 227 122.5 372.5t311.5 145.5q124 0 218.5 -60.5t145.5 -171.5v664h50v-1442h-41l-7 207q-51 -111 -146.5 -171.5t-219.5 -60.5q-189 0 -311.5 145.5t-122.5 371.5zM162 492q0 -206 110.5 -339t280.5 -133q158 0 258 105t100 270v193q0 166 -100 271.5 t-258 105.5q-170 0 -280.5 -133t-110.5 -340z" />
<glyph unicode="e" horiz-adv-x="1069" d="M113 492q0 229 124.5 373.5t321.5 144.5q185 0 300.5 -138.5t115.5 -359.5q0 -19 -2 -29h-813q5 -206 125 -334.5t309 -128.5q153 0 309 84l23 -38q-175 -91 -334 -91q-211 0 -345 145t-134 372zM160 526h766q-2 194 -104 316.5t-263 122.5q-170 0 -279 -121t-120 -318z " />
<glyph unicode="f" horiz-adv-x="724" d="M63 940v45h228v229q0 110 71 181t181 71q83 0 168 -24l-11 -45q-80 24 -153 24q-91 0 -149 -58.5t-58 -150.5v-227h322v-45h-322v-940h-49v940h-228z" />
<glyph unicode="g" horiz-adv-x="1153" d="M113 492q0 227 122.5 372.5t311.5 145.5q124 0 219.5 -60.5t146.5 -171.5l7 207h41v-1044q0 -172 -122 -282t-313 -110q-158 0 -350 82l19 43q183 -80 329 -80q171 0 279 97t108 250v266q-51 -111 -145.5 -171.5t-218.5 -60.5q-189 0 -311.5 145.5t-122.5 371.5zM162 492 q0 -206 110.5 -339t280.5 -133q158 0 258 105t100 270v193q0 166 -100 271.5t-258 105.5q-170 0 -280.5 -133t-110.5 -340z" />
<glyph unicode="h" horiz-adv-x="1153" d="M193 0v1442h49v-680q46 117 145 182.5t227 65.5q158 0 260.5 -100t102.5 -255v-655h-49v651q0 138 -90 225t-230 87q-158 0 -262 -110t-104 -282v-571h-49z" />
<glyph unicode="i" horiz-adv-x="434" d="M164 1309q0 24 14.5 38.5t38.5 14.5t38.5 -14.5t14.5 -38.5q0 -23 -15 -38.5t-38 -15.5t-38 15.5t-15 38.5zM193 0v985h49v-985h-49z" />
<glyph unicode="j" horiz-adv-x="450" d="M-164 -426l10 45q86 -25 154 -25q92 0 150.5 58.5t58.5 150.5v1182h49v-1184q0 -110 -71 -181t-181 -71q-81 0 -170 25zM180 1309q0 24 14.5 38.5t38.5 14.5t39 -14.5t15 -38.5q0 -23 -15.5 -38.5t-38.5 -15.5t-38 15.5t-15 38.5z" />
<glyph unicode="k" horiz-adv-x="991" d="M193 0v1442h47v-1024l577 567h66l-469 -461l485 -524h-63l-455 494l-141 -138v-356h-47z" />
<glyph unicode="l" horiz-adv-x="532" d="M193 164v1278h49v-1278q0 -66 38.5 -105t104.5 -39q37 0 107 17l8 -45q-73 -17 -119 -17q-88 0 -138 50t-50 139z" />
<glyph unicode="m" horiz-adv-x="1822" d="M193 0v985h40l7 -215q43 112 138 176t220 64q126 0 217 -70t119 -188q46 121 142.5 189.5t223.5 68.5q152 0 249.5 -95.5t97.5 -242.5v-672h-50v668q0 129 -85 212t-218 83q-152 0 -251 -105.5t-99 -269.5v-588h-49v668q0 129 -85 212t-218 83q-152 0 -251 -105.5 t-99 -269.5v-588h-49z" />
<glyph unicode="n" horiz-adv-x="1153" d="M193 0v985h40l7 -223q45 116 145.5 182t228.5 66q158 0 260.5 -100t102.5 -255v-655h-49v651q0 138 -90 225t-230 87q-158 0 -262 -110t-104 -282v-571h-49z" />
<glyph unicode="o" horiz-adv-x="1153" d="M113 492q0 228 129.5 373t332.5 145q204 0 334.5 -145t130.5 -373q0 -227 -130.5 -372t-334.5 -145q-203 0 -332.5 145t-129.5 372zM162 492q0 -208 115 -340t298 -132t299.5 132.5t116.5 339.5q0 209 -116.5 341t-299.5 132t-298 -132t-115 -341z" />
<glyph unicode="p" horiz-adv-x="1153" d="M193 -426v1411h40l7 -207q51 110 146 171t218 61q191 0 313.5 -145.5t122.5 -372.5q0 -226 -123 -371.5t-313 -145.5q-123 0 -217 60.5t-145 171.5v-633h-49zM242 395q0 -165 100 -270t258 -105q170 0 280.5 133t110.5 339q0 207 -110.5 340t-280.5 133 q-158 0 -258 -105.5t-100 -271.5v-193z" />
<glyph unicode="q" horiz-adv-x="1153" d="M113 492q0 227 122.5 372.5t311.5 145.5q124 0 219.5 -60.5t146.5 -171.5l7 207h41v-1411h-50v633q-51 -111 -145.5 -171.5t-218.5 -60.5q-189 0 -311.5 145.5t-122.5 371.5zM162 492q0 -206 110.5 -339t280.5 -133q158 0 258 105t100 270v193q0 166 -100 271.5 t-258 105.5q-170 0 -280.5 -133t-110.5 -340z" />
<glyph unicode="r" horiz-adv-x="743" d="M193 0v985h40l7 -225q32 112 119 176.5t206 64.5q63 0 131 -18l-12 -45q-64 18 -121 18q-141 0 -231 -110.5t-90 -284.5v-561h-49z" />
<glyph unicode="s" horiz-adv-x="888" d="M113 49l14 43q173 -72 315 -72q129 0 208 59t79 154q0 52 -21 91.5t-56 65t-80.5 44.5t-96 34t-101 30.5t-96 37t-80.5 49.5t-56 72.5t-21 102.5q0 110 90.5 180t232.5 70q146 0 301 -66l-16 -43q-149 64 -283 64q-125 0 -201.5 -56.5t-76.5 -148.5q0 -64 33.5 -109 t87.5 -70t119 -44.5t130 -41t119 -51t87.5 -83t33.5 -128.5q0 -115 -92.5 -186.5t-241.5 -71.5q-154 0 -331 74z" />
<glyph unicode="t" horiz-adv-x="790" d="M63 940v45h228v295h49v-295h354v-45h-354v-711q0 -92 58 -150.5t149 -58.5q70 0 153 25l11 -45q-89 -25 -168 -25q-110 0 -181 71t-71 181v713h-228z" />
<glyph unicode="u" horiz-adv-x="1153" d="M176 330v655h49v-651q0 -138 90 -226t230 -88q158 0 262 110t104 282v573h50v-985h-41l-7 223q-47 -117 -146.5 -182.5t-227.5 -65.5q-159 0 -261 99.5t-102 255.5z" />
<glyph unicode="v" horiz-adv-x="1021" d="M78 985h51l381 -922l383 922h51l-409 -985h-48z" />
<glyph unicode="w" horiz-adv-x="1546" d="M94 985h51l301 -917l302 917h51l301 -917l301 917h51l-326 -985h-51l-303 918l-301 -918h-51z" />
<glyph unicode="x" horiz-adv-x="1021" d="M92 0l387 504l-370 481h59l342 -444l344 444h59l-370 -481l387 -504h-60l-360 469l-358 -469h-60z" />
<glyph unicode="y" horiz-adv-x="1021" d="M66 -434l10 45q66 -17 106 -17q83 0 136.5 53t103.5 181l72 176l-416 981h51l389 -922l375 922h51l-479 -1175q-57 -141 -119.5 -201t-161.5 -60q-45 0 -118 17z" />
<glyph unicode="z" horiz-adv-x="954" d="M113 0v33l645 907h-629v45h698v-33l-647 -907h664v-45h-731z" />
<glyph unicode="{" horiz-adv-x="659" d="M94 567v45h33q85 0 138.5 58.5t53.5 150.5q0 55 -15 181t-15 188q0 111 68 182.5t169 71.5h39v-45h-33q-86 0 -141 -58t-55 -153q0 -56 16.5 -181t16.5 -188q0 -81 -39.5 -143t-110.5 -86q71 -24 110.5 -86.5t39.5 -143.5q0 -61 -16.5 -185.5t-16.5 -182.5 q0 -94 55 -152.5t141 -58.5h33v-45h-39q-101 0 -169 71.5t-68 182.5q0 61 15 185t15 183q0 90 -53.5 149.5t-138.5 59.5h-33z" />
<glyph unicode="|" horiz-adv-x="491" d="M223 -459v1966h45v-1966h-45z" />
<glyph unicode="}" horiz-adv-x="659" d="M96 -219h33q85 0 140 58t55 153q0 56 -15.5 181t-15.5 187q0 82 38.5 144t108.5 86q-70 24 -108.5 86t-38.5 143q0 61 15.5 186t15.5 183q0 94 -55.5 152.5t-139.5 58.5h-33v45h37q102 0 170 -71.5t68 -182.5q0 -61 -15.5 -185.5t-15.5 -183.5q0 -90 53.5 -149.5 t138.5 -59.5h33v-45h-33q-85 0 -138.5 -58.5t-53.5 -150.5q0 -56 15.5 -181.5t15.5 -186.5q0 -111 -68 -182.5t-170 -71.5h-37v45z" />
<glyph unicode="~" d="M125 559q115 103 266 103q55 0 110 -15.5t92.5 -34t90 -34t104.5 -15.5q131 0 238 94l29 -36q-115 -103 -267 -103q-69 0 -136 24.5t-131.5 49t-129.5 24.5q-130 0 -237 -94z" />
<glyph unicode="&#xa1;" horiz-adv-x="497" d="M197 948q0 23 14 38t37 15q24 0 38.5 -14.5t14.5 -38.5t-14.5 -38.5t-38.5 -14.5q-23 0 -37 15t-14 38zM223 -391l4 979h43l4 -979h-51z" />
<glyph unicode="&#xa2;" d="M209 688q0 217 117.5 359.5t306.5 156.5v303h45v-303q164 0 311 -106l-24 -39q-139 100 -289 100q-186 0 -302 -131t-116 -340t116 -340t302 -131q150 0 289 100l24 -38q-149 -107 -311 -107v-303h-45v303q-189 14 -306.5 156.5t-117.5 359.5z" />
<glyph unicode="&#xa3;" d="M162 0v45h225v637h-192v45h192v332q0 153 102 247.5t265 94.5q125 0 268 -58l-16 -43q-130 56 -248 56q-143 0 -232.5 -82.5t-89.5 -214.5v-332h422v-45h-422v-637h615v-45h-889z" />
<glyph unicode="&#xa4;" d="M156 285l168 170q-84 94 -84 233t82 234l-166 170l30 30l168 -168q94 84 236 84q139 0 233 -84l170 168l31 -30l-168 -170q84 -94 84 -234q0 -136 -84 -233l168 -170l-31 -31l-170 168q-95 -82 -233 -82q-139 0 -234 82l-170 -168zM285 688q0 -133 85.5 -218t219.5 -85 t219.5 85t85.5 218q0 134 -85.5 219.5t-219.5 85.5t-219.5 -85.5t-85.5 -219.5z" />
<glyph unicode="&#xa5;" d="M106 1376h58l426 -647l424 647h59l-442 -667h354v-43h-371v-254h371v-43h-371v-369h-49v369h-370v43h370v254h-370v43h354z" />
<glyph unicode="&#xa6;" horiz-adv-x="491" d="M223 -360v786h45v-786h-45zM223 623v786h45v-786h-45z" />
<glyph unicode="&#xa7;" horiz-adv-x="1052" d="M117 -262l14 43q213 -90 377 -90q159 0 252.5 70t93.5 190q0 63 -25 111t-67 78t-97 53.5t-115 41.5t-120.5 36.5t-115.5 44t-97 59.5t-67 87t-25 122q0 90 53 159t148 101q-168 84 -168 262q0 132 106.5 213.5t278.5 81.5q160 0 356 -82l-14 -43q-193 80 -340 80 q-153 0 -245.5 -69.5t-92.5 -180.5q0 -78 40.5 -133t105 -85.5t142 -54t155.5 -49t142.5 -60.5t105 -98.5t40.5 -152.5t-50 -157t-140 -105q157 -89 157 -260q0 -139 -108.5 -221t-286.5 -82t-393 90zM174 584q0 -60 24.5 -107t61.5 -75.5t94.5 -53t108.5 -39t119 -35 t112 -38.5q91 29 142 91.5t51 145.5q0 60 -23.5 107t-58.5 76t-91 54t-104 38.5t-116 33.5t-109 35q-99 -25 -155 -86.5t-56 -146.5z" />
<glyph unicode="&#xa8;" horiz-adv-x="491" d="M-4 1309q0 23 14 38t37 15t37 -15t14 -38t-14 -37.5t-37 -14.5t-37 14.5t-14 37.5zM393 1309q0 23 14 38t37 15t37.5 -15t14.5 -38t-14.5 -37.5t-37.5 -14.5t-37 14.5t-14 37.5z" />
<glyph unicode="&#xa9;" horiz-adv-x="1703" d="M98 688q0 218 96 390t268 268t390 96t390 -96t268 -268t96 -390t-96 -390t-268 -268t-390 -96t-390 96t-268 268t-96 390zM139 688q0 -155 52.5 -288t146 -226.5t226.5 -146t288 -52.5t288 52.5t226.5 146t146 226.5t52.5 288t-52.5 288t-146 226.5t-226.5 146t-288 52.5 t-288 -52.5t-226.5 -146t-146 -226.5t-52.5 -288zM473 688q0 195 112 318.5t292 123.5q136 0 270 -90l-25 -34q-112 81 -243 81q-161 0 -262 -111t-101 -288t101 -289t262 -112q127 0 243 84l25 -35q-134 -90 -270 -90q-180 0 -292 123.5t-112 318.5z" />
<glyph unicode="&#xaa;" horiz-adv-x="763" d="M63 504v39h637v-39h-637zM92 895q0 100 79.5 156.5t217.5 56.5q68 0 168 -21v87q0 80 -52.5 130t-135.5 50q-110 0 -219 -49l-15 36q122 52 236 52q99 0 164 -61t65 -158v-361q0 -31 18.5 -49.5t49.5 -18.5q8 0 43 5l6 -41q-32 -4 -53 -4q-47 0 -77 29.5t-30 76.5v37 q-35 -69 -97.5 -106t-144.5 -37q-96 0 -159.5 53.5t-63.5 136.5zM137 895q0 -66 51.5 -109t128.5 -43q103 0 171.5 66t68.5 166v76q-103 18 -168 18q-118 0 -185 -45t-67 -129z" />
<glyph unicode="&#xab;" horiz-adv-x="997" d="M66 489v31l403 447l31 -27l-383 -436l383 -434l-31 -27zM467 489v31l403 447l31 -27l-383 -436l383 -434l-31 -27z" />
<glyph unicode="&#xac;" d="M129 567v45h922v-483h-45v438h-877z" />
<glyph unicode="&#xad;" horiz-adv-x="655" d="M127 481v45h528v-45h-528z" />
<glyph unicode="&#xae;" horiz-adv-x="1703" d="M98 688q0 218 96 390t268 268t390 96t390 -96t268 -268t96 -390t-96 -390t-268 -268t-390 -96t-390 96t-268 268t-96 390zM139 688q0 -155 52.5 -288t146 -226.5t226.5 -146t288 -52.5t288 52.5t226.5 146t146 226.5t52.5 288t-52.5 288t-146 226.5t-226.5 146t-288 52.5 t-288 -52.5t-226.5 -146t-146 -226.5t-52.5 -288zM600 262v852h297q115 0 188.5 -68t73.5 -176q0 -101 -64 -167t-167 -74l260 -367h-53l-254 365h-236v-365h-45zM645 668h250q99 0 159 54.5t60 147.5q0 91 -60.5 147t-158.5 56h-250v-405z" />
<glyph unicode="&#xaf;" horiz-adv-x="491" d="M-35 1288v43h561v-43h-561z" />
<glyph unicode="&#xb0;" horiz-adv-x="657" d="M113 1176q0 95 61 156t156 61t156 -61t61 -156t-61 -156.5t-156 -61.5t-156 61.5t-61 156.5zM154 1176q0 -78 49 -127.5t127 -49.5t127 49.5t49 127.5t-49 127t-127 49t-127 -49t-49 -127z" />
<glyph unicode="&#xb1;" d="M129 0v45h922v-45h-922zM129 676v45h438v438h45v-438h439v-45h-439v-438h-45v438h-438z" />
<glyph unicode="&#xb2;" horiz-adv-x="692" d="M57 786v31l363 365q108 108 108 225q0 93 -56 149t-150 56q-107 0 -230 -74l-20 35q130 82 252 82q110 0 179.5 -68.5t69.5 -175.5q0 -137 -120 -254l-328 -330h459v-41h-527z" />
<glyph unicode="&#xb3;" horiz-adv-x="692" d="M70 834l20 38q117 -61 232 -61q98 0 158.5 54t60.5 139q0 89 -71 143.5t-185 54.5h-45v41h45q105 0 170 52t65 137q0 82 -54 132t-144 50q-112 0 -222 -55l-16 38q116 58 242 58q105 0 172 -62t67 -159q0 -77 -46 -133.5t-124 -75.5q87 -23 139 -84t52 -140 q0 -103 -72 -167t-188 -64q-131 0 -256 64z" />
<glyph unicode="&#xb4;" horiz-adv-x="491" d="M158 1200l313 215l27 -39l-318 -207z" />
<glyph unicode="&#xb5;" horiz-adv-x="1202" d="M193 -426v1411h49v-651q0 -139 89.5 -226.5t229.5 -87.5q158 0 262.5 110t104.5 282v573h49v-852q0 -53 29.5 -83t83.5 -30q16 0 57 9l8 -45q-52 -9 -72 -9q-70 0 -111.5 41.5t-41.5 112.5v94q-45 -116 -144.5 -182t-226.5 -66q-107 0 -191 49t-126 140v-590h-49z" />
<glyph unicode="&#xb6;" horiz-adv-x="1153" d="M111 979q0 173 122 285t308 112h370v-1704h-45v1659h-227v-749h-98q-186 0 -308 112t-122 285z" />
<glyph unicode="&#xb7;" horiz-adv-x="464" d="M174 506q0 25 16 41t41 16q26 0 42 -16t16 -41q0 -26 -16 -41.5t-42 -15.5q-25 0 -41 15.5t-16 41.5z" />
<glyph unicode="&#xb8;" horiz-adv-x="491" d="M61 -412l15 39q77 -30 149 -30q62 0 103 31t41 81t-40 80.5t-104 30.5h-18l33 180h45l-27 -143q67 -4 112.5 -47.5t45.5 -102.5q0 -65 -54.5 -108t-134.5 -43q-89 0 -166 32z" />
<glyph unicode="&#xb9;" horiz-adv-x="534" d="M53 1483l269 155h36v-852h-43v801l-241 -141z" />
<glyph unicode="&#xba;" horiz-adv-x="811" d="M92 1049q0 152 88.5 248t225.5 96t225 -96t88 -248t-88 -248t-225 -96t-225.5 96t-88.5 248zM96 504v39h619v-39h-619zM137 1049q0 -134 75.5 -219t193.5 -85t193 85t75 219q0 135 -74.5 219t-193.5 84t-194 -84t-75 -219z" />
<glyph unicode="&#xbb;" horiz-adv-x="997" d="M96 70l383 434l-383 436l31 27l403 -447v-31l-403 -446zM498 70l383 434l-383 436l30 27l404 -447v-31l-404 -446z" />
<glyph unicode="&#xbc;" horiz-adv-x="1966" d="M178 1221l268 155h37v-852h-43v801l-241 -141zM451 12l1032 1377l33 -25l-1033 -1376zM1257 215v31l429 606h40v-598h150v-39h-150v-215h-40v215h-429zM1313 254h373v528z" />
<glyph unicode="&#xbd;" horiz-adv-x="1966" d="M178 1221l268 155h37v-852h-43v801l-241 -141zM451 12l1032 1377l33 -25l-1033 -1376zM1284 0v31l363 364q108 108 108 226q0 92 -56.5 148t-150.5 56q-108 0 -229 -73l-21 34q130 82 252 82q110 0 180 -68t70 -175q0 -136 -121 -254l-327 -330h458v-41h-526z" />
<glyph unicode="&#xbe;" horiz-adv-x="1966" d="M117 571l20 39q117 -61 232 -61q98 0 158.5 53.5t60.5 138.5q0 89 -71 144t-185 55h-45v41h45q105 0 170 52t65 136q0 82 -54 132.5t-144 50.5q-110 0 -222 -56l-16 39q116 58 242 58q105 0 172 -62.5t67 -159.5q0 -77 -46 -133t-124 -75q87 -23 139 -84t52 -140 q0 -103 -72 -167t-188 -64q-133 0 -256 63zM451 12l1032 1377l33 -25l-1033 -1376zM1257 215v31l429 606h40v-598h150v-39h-150v-215h-40v215h-429zM1313 254h373v528z" />
<glyph unicode="&#xbf;" horiz-adv-x="788" d="M96 -63q0 60 20 115t51.5 98t69.5 84t76.5 79.5t70 77t51.5 85t20 95.5v17h43v-19q0 -71 -36.5 -137.5t-88 -119.5t-103.5 -106.5t-88.5 -122t-36.5 -142.5q0 -137 89.5 -224.5t230.5 -87.5q163 0 336 117l24 -39q-177 -123 -364 -123q-160 0 -262.5 99.5t-102.5 253.5z M424 948q0 24 14.5 38.5t38.5 14.5q23 0 38 -15t15 -38t-15 -38t-38 -15q-24 0 -38.5 14.5t-14.5 38.5z" />
<glyph unicode="&#xc0;" horiz-adv-x="1347" d="M76 0l573 1376h49l572 -1376h-53l-181 434h-725l-180 -434h-55zM330 479h688l-344 830zM424 1767l27 39l313 -215l-23 -30z" />
<glyph unicode="&#xc1;" horiz-adv-x="1347" d="M76 0l573 1376h49l572 -1376h-53l-181 434h-725l-180 -434h-55zM330 479h688l-344 830zM586 1591l313 215l27 -39l-318 -206z" />
<glyph unicode="&#xc2;" horiz-adv-x="1347" d="M76 0l573 1376h49l572 -1376h-53l-181 434h-725l-180 -434h-55zM330 479h688l-344 830zM406 1593l247 242h41l248 -242l-29 -28l-239 227l-240 -227z" />
<glyph unicode="&#xc3;" horiz-adv-x="1347" d="M76 0l573 1376h49l572 -1376h-53l-181 434h-725l-180 -434h-55zM330 479h688l-344 830zM406 1653q15 49 52 79.5t85 30.5q43 0 134 -41t126 -41q34 0 60 22t38 60l41 -16q-15 -49 -52 -79t-85 -30q-43 0 -134 41t-126 41q-34 0 -60.5 -22t-38.5 -60z" />
<glyph unicode="&#xc4;" horiz-adv-x="1347" d="M76 0l573 1376h49l572 -1376h-53l-181 434h-725l-180 -434h-55zM330 479h688l-344 830zM446 1700q0 23 14.5 38t37.5 15t37 -15t14 -38t-14 -37t-37 -14t-37.5 14t-14.5 37zM844 1700q0 23 14 38t37 15t37 -15t14 -38t-14 -37t-37 -14t-37 14t-14 37z" />
<glyph unicode="&#xc5;" horiz-adv-x="1347" d="M76 0l573 1376h49l572 -1376h-53l-181 434h-725l-180 -434h-55zM330 479h688l-344 830zM492 1700q0 82 50 132t132 50t132 -50t50 -132q0 -80 -48.5 -131t-129.5 -51q-82 0 -134 51t-52 131zM530 1700q0 -64 41.5 -104t106.5 -40q63 0 101 39.5t38 104.5q0 64 -40 103.5 t-103 39.5q-65 0 -104.5 -39.5t-39.5 -103.5z" />
<glyph unicode="&#xc6;" horiz-adv-x="1968" d="M27 0l944 1376h837v-45h-764v-604h699v-45h-699v-637h797v-45h-844v434h-612l-299 -434h-59zM414 479h583v850z" />
<glyph unicode="&#xc7;" horiz-adv-x="1312" d="M127 688q0 209 81 371t228 252t336 90q224 0 430 -144l-24 -40q-190 139 -404 139q-265 0 -430.5 -185.5t-165.5 -482.5t165.5 -482.5t430.5 -185.5q213 0 404 140l24 -41q-196 -138 -414 -144l-22 -118q67 -4 112.5 -47.5t45.5 -102.5q0 -66 -53.5 -108.5t-133.5 -42.5 q-89 0 -168 32l15 39q76 -30 151 -30q62 0 103 31t41 81t-41 80.5t-105 30.5h-16l28 157q-277 9 -447.5 205t-170.5 506z" />
<glyph unicode="&#xc8;" horiz-adv-x="1214" d="M240 0v1376h813v-45h-762v-604h696v-45h-696v-637h794v-45h-845zM373 1767l26 39l314 -215l-23 -30z" />
<glyph unicode="&#xc9;" horiz-adv-x="1214" d="M240 0v1376h813v-45h-762v-604h696v-45h-696v-637h794v-45h-845zM535 1591l313 215l26 -39l-317 -206z" />
<glyph unicode="&#xca;" horiz-adv-x="1214" d="M240 0v1376h813v-45h-762v-604h696v-45h-696v-637h794v-45h-845zM354 1593l248 242h41l248 -242l-29 -28l-239 227l-240 -227z" />
<glyph unicode="&#xcb;" horiz-adv-x="1214" d="M240 0v1376h813v-45h-762v-604h696v-45h-696v-637h794v-45h-845zM373 1700q0 23 14 38t37 15t37 -15t14 -38t-14 -37t-37 -14t-37 14t-14 37zM770 1700q0 23 14 38t37 15t37 -15t14 -38t-14 -37t-37 -14t-37 14t-14 37z" />
<glyph unicode="&#xcc;" horiz-adv-x="530" d="M16 1767l27 39l313 -215l-22 -30zM240 0v1376h51v-1376h-51z" />
<glyph unicode="&#xcd;" horiz-adv-x="530" d="M178 1591l314 215l26 -39l-317 -206zM240 0v1376h51v-1376h-51z" />
<glyph unicode="&#xce;" horiz-adv-x="530" d="M-2 1593l248 242h41l248 -242l-29 -28l-240 227l-239 -227zM240 0v1376h51v-1376h-51z" />
<glyph unicode="&#xcf;" horiz-adv-x="530" d="M16 1700q0 23 14.5 38t37.5 15t37 -15t14 -38t-14 -37t-37 -14t-37.5 14t-14.5 37zM240 0v1376h51v-1376h-51zM414 1700q0 23 14 38t37 15t37 -15t14 -38t-14 -37t-37 -14t-37 14t-14 37z" />
<glyph unicode="&#xd0;" horiz-adv-x="1478" d="M63 682v45h209v649h390q308 0 499 -190.5t191 -497.5q0 -201 -86.5 -357.5t-243.5 -243.5t-360 -87h-390v682h-209zM322 45h337q140 0 259.5 47.5t203.5 132t131 204t47 259.5t-47 259.5t-131 204t-203.5 132t-259.5 47.5h-337v-604h403v-45h-403v-637z" />
<glyph unicode="&#xd1;" horiz-adv-x="1544" d="M240 0v1376h53l962 -1304v1304h48v-1376h-54l-960 1305v-1305h-49zM504 1653q15 49 52 79.5t85 30.5q43 0 134 -41t126 -41q34 0 60 22t38 60l41 -16q-15 -49 -52 -79t-85 -30q-43 0 -134 41t-126 41q-34 0 -60 -22t-38 -60z" />
<glyph unicode="&#xd2;" horiz-adv-x="1544" d="M127 688q0 155 48 287.5t132.5 226t204.5 146.5t260 53q186 0 333.5 -90.5t229.5 -253.5t82 -369t-82 -369t-229.5 -253.5t-333.5 -90.5q-140 0 -260 53t-204.5 146.5t-132.5 226t-48 287.5zM178 688q0 -192 75.5 -344.5t211 -238t307.5 -85.5t307.5 85.5t211 238 t75.5 344.5t-75.5 344.5t-211 238t-307.5 85.5t-307.5 -85.5t-211 -238t-75.5 -344.5zM522 1767l27 39l313 -215l-22 -30z" />
<glyph unicode="&#xd3;" horiz-adv-x="1544" d="M127 688q0 155 48 287.5t132.5 226t204.5 146.5t260 53q186 0 333.5 -90.5t229.5 -253.5t82 -369t-82 -369t-229.5 -253.5t-333.5 -90.5q-140 0 -260 53t-204.5 146.5t-132.5 226t-48 287.5zM178 688q0 -192 75.5 -344.5t211 -238t307.5 -85.5t307.5 85.5t211 238 t75.5 344.5t-75.5 344.5t-211 238t-307.5 85.5t-307.5 -85.5t-211 -238t-75.5 -344.5zM684 1591l313 215l27 -39l-317 -206z" />
<glyph unicode="&#xd4;" horiz-adv-x="1544" d="M127 688q0 155 48 287.5t132.5 226t204.5 146.5t260 53q186 0 333.5 -90.5t229.5 -253.5t82 -369t-82 -369t-229.5 -253.5t-333.5 -90.5q-140 0 -260 53t-204.5 146.5t-132.5 226t-48 287.5zM178 688q0 -192 75.5 -344.5t211 -238t307.5 -85.5t307.5 85.5t211 238 t75.5 344.5t-75.5 344.5t-211 238t-307.5 85.5t-307.5 -85.5t-211 -238t-75.5 -344.5zM504 1593l248 242h41l247 -242l-28 -28l-240 227l-240 -227z" />
<glyph unicode="&#xd5;" horiz-adv-x="1544" d="M127 688q0 155 48 287.5t132.5 226t204.5 146.5t260 53q186 0 333.5 -90.5t229.5 -253.5t82 -369t-82 -369t-229.5 -253.5t-333.5 -90.5q-140 0 -260 53t-204.5 146.5t-132.5 226t-48 287.5zM178 688q0 -192 75.5 -344.5t211 -238t307.5 -85.5t307.5 85.5t211 238 t75.5 344.5t-75.5 344.5t-211 238t-307.5 85.5t-307.5 -85.5t-211 -238t-75.5 -344.5zM504 1653q15 49 52 79.5t85 30.5q43 0 134 -41t126 -41q34 0 60 22t38 60l41 -16q-15 -49 -52 -79t-85 -30q-43 0 -134 41t-126 41q-34 0 -60 -22t-38 -60z" />
<glyph unicode="&#xd6;" horiz-adv-x="1544" d="M127 688q0 155 48 287.5t132.5 226t204.5 146.5t260 53q186 0 333.5 -90.5t229.5 -253.5t82 -369t-82 -369t-229.5 -253.5t-333.5 -90.5q-140 0 -260 53t-204.5 146.5t-132.5 226t-48 287.5zM178 688q0 -192 75.5 -344.5t211 -238t307.5 -85.5t307.5 85.5t211 238 t75.5 344.5t-75.5 344.5t-211 238t-307.5 85.5t-307.5 -85.5t-211 -238t-75.5 -344.5zM522 1700q0 23 14 38t37 15t37.5 -15t14.5 -38t-14.5 -37t-37.5 -14t-37 14t-14 37zM920 1700q0 23 14 38t37 15t37 -15t14 -38t-14 -37t-37 -14t-37 14t-14 37z" />
<glyph unicode="&#xd7;" d="M201 231l356 359l-356 358l30 31l359 -356l358 356l31 -31l-356 -358l356 -359l-31 -30l-358 356l-359 -356z" />
<glyph unicode="&#xd8;" horiz-adv-x="1544" d="M127 688q0 155 48 287.5t132.5 226t204.5 146.5t260 53q236 0 402 -141l100 131l31 -25l-101 -133q101 -97 157 -237t56 -308q0 -155 -48 -287.5t-132.5 -226t-204.5 -146.5t-260 -53q-239 0 -403 142l-99 -131l-32 24l100 133q-101 96 -156 236.5t-55 308.5zM176 688 q0 -154 50 -284.5t141 -221.5l780 1039q-157 135 -375 135q-172 0 -308 -85t-212 -237.5t-76 -345.5zM397 154q160 -134 375 -134q172 0 308 85t212 237.5t76 345.5q0 155 -50 285.5t-142 220.5z" />
<glyph unicode="&#xd9;" horiz-adv-x="1544" d="M223 510v866h51v-866q0 -214 141.5 -352t356.5 -138t356.5 138t141.5 352v866h49v-866q0 -154 -71 -276.5t-196 -190.5t-280 -68q-236 0 -392.5 151t-156.5 384zM522 1767l27 39l313 -215l-22 -30z" />
<glyph unicode="&#xda;" horiz-adv-x="1544" d="M223 510v866h51v-866q0 -214 141.5 -352t356.5 -138t356.5 138t141.5 352v866h49v-866q0 -154 -71 -276.5t-196 -190.5t-280 -68q-236 0 -392.5 151t-156.5 384zM684 1591l313 215l27 -39l-317 -206z" />
<glyph unicode="&#xdb;" horiz-adv-x="1544" d="M223 510v866h51v-866q0 -214 141.5 -352t356.5 -138t356.5 138t141.5 352v866h49v-866q0 -154 -71 -276.5t-196 -190.5t-280 -68q-236 0 -392.5 151t-156.5 384zM504 1593l248 242h41l247 -242l-28 -28l-240 227l-240 -227z" />
<glyph unicode="&#xdc;" horiz-adv-x="1544" d="M223 510v866h51v-866q0 -214 141.5 -352t356.5 -138t356.5 138t141.5 352v866h49v-866q0 -154 -71 -276.5t-196 -190.5t-280 -68q-236 0 -392.5 151t-156.5 384zM522 1700q0 23 14 38t37 15t37.5 -15t14.5 -38t-14.5 -37t-37.5 -14t-37 14t-14 37zM920 1700q0 23 14 38 t37 15t37 -15t14 -38t-14 -37t-37 -14t-37 14t-14 37z" />
<glyph unicode="&#xdd;" horiz-adv-x="1185" d="M59 1376h60l473 -710l475 710h57l-506 -758v-618h-51v618zM504 1591l313 215l27 -39l-318 -206z" />
<glyph unicode="&#xde;" horiz-adv-x="1247" d="M240 0v1376h49v-266h418q188 0 309 -113.5t121 -291.5t-121 -292t-309 -114h-418v-299h-49zM289 344h416q167 0 274.5 101.5t107.5 259.5t-107.5 259t-274.5 101h-416v-721z" />
<glyph unicode="&#xdf;" horiz-adv-x="1218" d="M193 0v1096q0 170 100 270t266 100q147 0 241.5 -83.5t94.5 -206.5q0 -58 -20 -108.5t-48.5 -87.5t-57.5 -72t-49 -79t-20 -92q0 -53 23.5 -94.5t60.5 -68t82 -50t90 -48.5t82 -55.5t60.5 -78t23.5 -109.5q0 -118 -87.5 -188t-227.5 -70q-122 0 -266 66l16 43 q134 -64 248 -64q120 0 195 57.5t75 155.5q0 55 -23.5 97t-60.5 69.5t-82 51.5t-90 48.5t-82 54.5t-60.5 76.5t-23.5 106.5q0 54 20 101t48.5 82.5t56.5 71.5t48 82.5t20 99.5q0 106 -80 176.5t-207 70.5q-144 0 -231.5 -87t-87.5 -238v-1096h-47z" />
<glyph unicode="&#xe0;" horiz-adv-x="1085" d="M113 256q0 153 117 237.5t325 84.5q129 0 258 -33v155q0 117 -80.5 191t-208.5 74q-159 0 -331 -72l-17 41q180 76 350 76q148 0 241 -86.5t93 -223.5v-569q0 -52 30 -81.5t83 -29.5q17 0 57 9l8 -45q-52 -9 -71 -9q-69 0 -110.5 42t-41.5 112v78q-47 -107 -147 -169.5 t-226 -62.5q-139 0 -234 81t-95 200zM162 258q0 -100 81.5 -170t202.5 -70q163 0 265 104.5t102 270.5v111q-129 33 -256 33q-187 0 -291 -74t-104 -205zM276 1376l27 39l313 -215l-22 -31z" />
<glyph unicode="&#xe1;" horiz-adv-x="1085" d="M113 256q0 153 117 237.5t325 84.5q129 0 258 -33v155q0 117 -80.5 191t-208.5 74q-159 0 -331 -72l-17 41q180 76 350 76q148 0 241 -86.5t93 -223.5v-569q0 -52 30 -81.5t83 -29.5q17 0 57 9l8 -45q-52 -9 -71 -9q-69 0 -110.5 42t-41.5 112v78q-47 -107 -147 -169.5 t-226 -62.5q-139 0 -234 81t-95 200zM162 258q0 -100 81.5 -170t202.5 -70q163 0 265 104.5t102 270.5v111q-129 33 -256 33q-187 0 -291 -74t-104 -205zM438 1200l314 215l26 -39l-317 -207z" />
<glyph unicode="&#xe2;" horiz-adv-x="1085" d="M113 256q0 153 117 237.5t325 84.5q129 0 258 -33v155q0 117 -80.5 191t-208.5 74q-159 0 -331 -72l-17 41q180 76 350 76q148 0 241 -86.5t93 -223.5v-569q0 -52 30 -81.5t83 -29.5q17 0 57 9l8 -45q-52 -9 -71 -9q-69 0 -110.5 42t-41.5 112v78q-47 -107 -147 -169.5 t-226 -62.5q-139 0 -234 81t-95 200zM162 258q0 -100 81.5 -170t202.5 -70q163 0 265 104.5t102 270.5v111q-129 33 -256 33q-187 0 -291 -74t-104 -205zM258 1202l248 242h41l248 -242l-29 -28l-240 227l-239 -227z" />
<glyph unicode="&#xe3;" horiz-adv-x="1085" d="M113 256q0 153 117 237.5t325 84.5q129 0 258 -33v155q0 117 -80.5 191t-208.5 74q-159 0 -331 -72l-17 41q180 76 350 76q148 0 241 -86.5t93 -223.5v-569q0 -52 30 -81.5t83 -29.5q17 0 57 9l8 -45q-52 -9 -71 -9q-69 0 -110.5 42t-41.5 112v78q-47 -107 -147 -169.5 t-226 -62.5q-139 0 -234 81t-95 200zM162 258q0 -100 81.5 -170t202.5 -70q163 0 265 104.5t102 270.5v111q-129 33 -256 33q-187 0 -291 -74t-104 -205zM258 1262q15 49 52 79.5t85 30.5q43 0 134 -41t126 -41q34 0 60.5 22t38.5 60l41 -16q-15 -48 -52.5 -78.5 t-85.5 -30.5q-43 0 -134 41t-126 41q-34 0 -60 -22t-38 -60z" />
<glyph unicode="&#xe4;" horiz-adv-x="1085" d="M113 256q0 153 117 237.5t325 84.5q129 0 258 -33v155q0 117 -80.5 191t-208.5 74q-159 0 -331 -72l-17 41q180 76 350 76q148 0 241 -86.5t93 -223.5v-569q0 -52 30 -81.5t83 -29.5q17 0 57 9l8 -45q-52 -9 -71 -9q-69 0 -110.5 42t-41.5 112v78q-47 -107 -147 -169.5 t-226 -62.5q-139 0 -234 81t-95 200zM162 258q0 -100 81.5 -170t202.5 -70q163 0 265 104.5t102 270.5v111q-129 33 -256 33q-187 0 -291 -74t-104 -205zM276 1309q0 23 14.5 38t37.5 15t37 -15t14 -38t-14 -37.5t-37 -14.5t-37.5 14.5t-14.5 37.5zM674 1309q0 23 14 38 t37 15t37 -15t14 -38t-14 -37.5t-37 -14.5t-37 14.5t-14 37.5z" />
<glyph unicode="&#xe5;" horiz-adv-x="1085" d="M113 256q0 153 117 237.5t325 84.5q129 0 258 -33v155q0 117 -80.5 191t-208.5 74q-159 0 -331 -72l-17 41q180 76 350 76q148 0 241 -86.5t93 -223.5v-569q0 -52 30 -81.5t83 -29.5q17 0 57 9l8 -45q-52 -9 -71 -9q-69 0 -110.5 42t-41.5 112v78q-47 -107 -147 -169.5 t-226 -62.5q-139 0 -234 81t-95 200zM162 258q0 -100 81.5 -170t202.5 -70q163 0 265 104.5t102 270.5v111q-129 33 -256 33q-187 0 -291 -74t-104 -205zM344 1309q0 82 50 132t132 50t132.5 -50t50.5 -132q0 -80 -49 -131.5t-130 -51.5q-82 0 -134 51.5t-52 131.5z M383 1309q0 -64 41 -104t106 -40q63 0 101.5 39.5t38.5 104.5q0 64 -40.5 103.5t-103.5 39.5q-64 0 -103.5 -39t-39.5 -104z" />
<glyph unicode="&#xe6;" horiz-adv-x="1769" d="M113 256q0 152 117.5 237t324.5 85q129 0 258 -33v155q0 117 -80.5 191t-208.5 74q-159 0 -331 -72l-17 41q180 76 350 76q142 0 233.5 -82t94.5 -213q44 137 153.5 216t252.5 79q183 0 298 -138.5t115 -359.5v-29h-813q5 -206 125 -334.5t309 -128.5q149 0 310 84 l20 -38q-172 -91 -332 -91q-156 0 -274.5 87.5t-171.5 238.5q-25 -147 -135.5 -236.5t-268.5 -89.5q-139 0 -234 81t-95 200zM162 258q0 -100 81.5 -170t202.5 -70q163 0 265 104.5t102 270.5v111q-129 33 -256 33q-187 0 -291 -74t-104 -205zM860 526h766 q-2 194 -103.5 316.5t-262.5 122.5q-170 0 -280.5 -121t-119.5 -318z" />
<glyph unicode="&#xe7;" horiz-adv-x="985" d="M113 492q0 228 129.5 373t332.5 145q168 0 318 -109l-25 -39q-139 103 -290 103q-183 0 -299.5 -132t-116.5 -341q0 -207 116.5 -339.5t299.5 -132.5q149 0 290 101l25 -39q-147 -104 -301 -107l-21 -118q67 -4 111.5 -47.5t44.5 -102.5q0 -66 -53 -108.5t-133 -42.5 q-89 0 -166 32l14 39q76 -30 150 -30q60 0 101.5 30t41.5 82q0 51 -39.5 81t-103.5 30h-19l29 155q-194 9 -315 152.5t-121 364.5z" />
<glyph unicode="&#xe8;" horiz-adv-x="1069" d="M113 492q0 229 124.5 373.5t321.5 144.5q185 0 300.5 -138.5t115.5 -359.5q0 -19 -2 -29h-813q5 -206 125 -334.5t309 -128.5q153 0 309 84l23 -38q-175 -91 -334 -91q-211 0 -345 145t-134 372zM160 526h766q-2 194 -104 316.5t-263 122.5q-170 0 -279 -121t-120 -318z M309 1376l27 39l313 -215l-22 -31z" />
<glyph unicode="&#xe9;" horiz-adv-x="1069" d="M113 492q0 229 124.5 373.5t321.5 144.5q185 0 300.5 -138.5t115.5 -359.5q0 -19 -2 -29h-813q5 -206 125 -334.5t309 -128.5q153 0 309 84l23 -38q-175 -91 -334 -91q-211 0 -345 145t-134 372zM160 526h766q-2 194 -104 316.5t-263 122.5q-170 0 -279 -121t-120 -318z M471 1200l313 215l27 -39l-317 -207z" />
<glyph unicode="&#xea;" horiz-adv-x="1069" d="M113 492q0 229 124.5 373.5t321.5 144.5q185 0 300.5 -138.5t115.5 -359.5q0 -19 -2 -29h-813q5 -206 125 -334.5t309 -128.5q153 0 309 84l23 -38q-175 -91 -334 -91q-211 0 -345 145t-134 372zM160 526h766q-2 194 -104 316.5t-263 122.5q-170 0 -279 -121t-120 -318z M291 1202l248 242h41l247 -242l-28 -28l-240 227l-240 -227z" />
<glyph unicode="&#xeb;" horiz-adv-x="1069" d="M113 492q0 229 124.5 373.5t321.5 144.5q185 0 300.5 -138.5t115.5 -359.5q0 -19 -2 -29h-813q5 -206 125 -334.5t309 -128.5q153 0 309 84l23 -38q-175 -91 -334 -91q-211 0 -345 145t-134 372zM160 526h766q-2 194 -104 316.5t-263 122.5q-170 0 -279 -121t-120 -318z M309 1309q0 23 14 38t37 15t37.5 -15t14.5 -38t-14.5 -37.5t-37.5 -14.5t-37 14.5t-14 37.5zM707 1309q0 23 14 38t37 15t37 -15t14 -38t-14 -37.5t-37 -14.5t-37 14.5t-14 37.5z" />
<glyph unicode="&#xec;" horiz-adv-x="434" d="M-33 1376l27 39l313 -215l-22 -31zM193 0v985h49v-985h-49z" />
<glyph unicode="&#xed;" horiz-adv-x="434" d="M129 1200l313 215l27 -39l-317 -207zM193 0v985h49v-985h-49z" />
<glyph unicode="&#xee;" horiz-adv-x="434" d="M-51 1202l248 242h41l247 -242l-28 -28l-240 227l-240 -227zM193 0v985h49v-985h-49z" />
<glyph unicode="&#xef;" horiz-adv-x="434" d="M-33 1309q0 23 14 38t37 15t37.5 -15t14.5 -38t-14.5 -37.5t-37.5 -14.5t-37 14.5t-14 37.5zM193 0v985h49v-985h-49zM365 1309q0 23 14 38t37 15t37 -15t14 -38t-14 -37.5t-37 -14.5t-37 14.5t-14 37.5z" />
<glyph unicode="&#xf0;" horiz-adv-x="1153" d="M113 492q0 227 124.5 371.5t319.5 144.5q116 0 203.5 -40t161.5 -134q-90 280 -336 456l-275 -135l-18 37l252 123q-98 59 -219 106l18 39q137 -50 250 -123l248 123l18 -37l-229 -110q165 -121 265 -293t122 -375q6 -61 6 -123q-1 -241 -131.5 -394t-333.5 -153 q-195 0 -320.5 145t-125.5 372zM160 492q0 -209 112 -340.5t287 -131.5q183 0 299.5 140t116.5 362q0 194 -116.5 317.5t-299.5 123.5q-175 0 -287 -132t-112 -339z" />
<glyph unicode="&#xf1;" horiz-adv-x="1153" d="M193 0v985h40l7 -223q45 116 145.5 182t228.5 66q158 0 260.5 -100t102.5 -255v-655h-49v651q0 138 -90 225t-230 87q-158 0 -262 -110t-104 -282v-571h-49zM307 1262q15 49 52 79.5t85 30.5q44 0 135 -41t126 -41q34 0 60 22t38 60l41 -16q-15 -49 -52 -79t-85 -30 q-43 0 -134.5 41t-126.5 41q-34 0 -60 -22t-38 -60z" />
<glyph unicode="&#xf2;" horiz-adv-x="1153" d="M113 492q0 228 129.5 373t332.5 145q204 0 334.5 -145t130.5 -373q0 -227 -130.5 -372t-334.5 -145q-203 0 -332.5 145t-129.5 372zM162 492q0 -208 115 -340t298 -132t299.5 132.5t116.5 339.5q0 209 -116.5 341t-299.5 132t-298 -132t-115 -341zM326 1376l26 39 l314 -215l-23 -31z" />
<glyph unicode="&#xf3;" horiz-adv-x="1153" d="M113 492q0 228 129.5 373t332.5 145q204 0 334.5 -145t130.5 -373q0 -227 -130.5 -372t-334.5 -145q-203 0 -332.5 145t-129.5 372zM162 492q0 -208 115 -340t298 -132t299.5 132.5t116.5 339.5q0 209 -116.5 341t-299.5 132t-298 -132t-115 -341zM487 1200l314 215 l26 -39l-317 -207z" />
<glyph unicode="&#xf4;" horiz-adv-x="1153" d="M113 492q0 228 129.5 373t332.5 145q204 0 334.5 -145t130.5 -373q0 -227 -130.5 -372t-334.5 -145q-203 0 -332.5 145t-129.5 372zM162 492q0 -208 115 -340t298 -132t299.5 132.5t116.5 339.5q0 209 -116.5 341t-299.5 132t-298 -132t-115 -341zM307 1202l248 242h41 l248 -242l-29 -28l-240 227l-239 -227z" />
<glyph unicode="&#xf5;" horiz-adv-x="1153" d="M113 492q0 228 129.5 373t332.5 145q204 0 334.5 -145t130.5 -373q0 -227 -130.5 -372t-334.5 -145q-203 0 -332.5 145t-129.5 372zM162 492q0 -208 115 -340t298 -132t299.5 132.5t116.5 339.5q0 209 -116.5 341t-299.5 132t-298 -132t-115 -341zM307 1262 q15 49 52 79.5t85 30.5q44 0 135 -41t126 -41q34 0 60 22t38 60l41 -16q-15 -49 -52 -79t-85 -30q-43 0 -134.5 41t-126.5 41q-34 0 -60 -22t-38 -60z" />
<glyph unicode="&#xf6;" horiz-adv-x="1153" d="M113 492q0 228 129.5 373t332.5 145q204 0 334.5 -145t130.5 -373q0 -227 -130.5 -372t-334.5 -145q-203 0 -332.5 145t-129.5 372zM162 492q0 -208 115 -340t298 -132t299.5 132.5t116.5 339.5q0 209 -116.5 341t-299.5 132t-298 -132t-115 -341zM326 1309q0 23 14 38 t37 15t37 -15t14 -38t-14 -37.5t-37 -14.5t-37 14.5t-14 37.5zM723 1309q0 23 14 38t37 15t37 -15t14 -38t-14 -37.5t-37 -14.5t-37 14.5t-14 37.5z" />
<glyph unicode="&#xf7;" d="M129 567v45h922v-45h-922zM545 197q0 20 12.5 32.5t32.5 12.5t32.5 -12.5t12.5 -32.5t-12.5 -32.5t-32.5 -12.5t-32.5 12.5t-12.5 32.5zM545 983q0 20 12.5 32.5t32.5 12.5t32.5 -12.5t12.5 -32.5t-12.5 -32.5t-32.5 -12.5t-32.5 12.5t-12.5 32.5z" />
<glyph unicode="&#xf8;" horiz-adv-x="1153" d="M113 492q0 228 129.5 373t332.5 145q163 0 287 -103l70 92l31 -24l-70 -94q147 -147 147 -389q0 -227 -130.5 -372t-334.5 -145q-167 0 -286 103l-68 -92l-31 24l68 90q-145 145 -145 392zM160 492q0 -220 127 -353l549 731q-113 95 -261 95q-183 0 -299 -132t-116 -341z M315 115q109 -95 260 -95q185 0 301.5 131.5t116.5 340.5q0 220 -129 352z" />
<glyph unicode="&#xf9;" horiz-adv-x="1153" d="M176 330v655h49v-651q0 -138 90 -226t230 -88q158 0 262 110t104 282v573h50v-985h-41l-7 223q-47 -117 -146.5 -182.5t-227.5 -65.5q-159 0 -261 99.5t-102 255.5zM326 1376l26 39l314 -215l-23 -31z" />
<glyph unicode="&#xfa;" horiz-adv-x="1153" d="M176 330v655h49v-651q0 -138 90 -226t230 -88q158 0 262 110t104 282v573h50v-985h-41l-7 223q-47 -117 -146.5 -182.5t-227.5 -65.5q-159 0 -261 99.5t-102 255.5zM487 1200l314 215l26 -39l-317 -207z" />
<glyph unicode="&#xfb;" horiz-adv-x="1153" d="M176 330v655h49v-651q0 -138 90 -226t230 -88q158 0 262 110t104 282v573h50v-985h-41l-7 223q-47 -117 -146.5 -182.5t-227.5 -65.5q-159 0 -261 99.5t-102 255.5zM307 1202l248 242h41l248 -242l-29 -28l-240 227l-239 -227z" />
<glyph unicode="&#xfc;" horiz-adv-x="1153" d="M176 330v655h49v-651q0 -138 90 -226t230 -88q158 0 262 110t104 282v573h50v-985h-41l-7 223q-47 -117 -146.5 -182.5t-227.5 -65.5q-159 0 -261 99.5t-102 255.5zM326 1309q0 23 14 38t37 15t37 -15t14 -38t-14 -37.5t-37 -14.5t-37 14.5t-14 37.5zM723 1309 q0 23 14 38t37 15t37 -15t14 -38t-14 -37.5t-37 -14.5t-37 14.5t-14 37.5z" />
<glyph unicode="&#xfd;" horiz-adv-x="1021" d="M66 -434l10 45q66 -17 106 -17q83 0 136.5 53t103.5 181l72 176l-416 981h51l389 -922l375 922h51l-479 -1175q-57 -141 -119.5 -201t-161.5 -60q-45 0 -118 17zM422 1200l313 215l27 -39l-318 -207z" />
<glyph unicode="&#xfe;" horiz-adv-x="1153" d="M193 -426v1868h49v-664q51 111 145 171.5t217 60.5q191 0 313.5 -145.5t122.5 -372.5q0 -226 -123 -371.5t-313 -145.5q-123 0 -217 60.5t-145 171.5v-633h-49zM242 395q0 -165 100 -270t258 -105q170 0 280.5 133t110.5 339q0 207 -110.5 340t-280.5 133 q-158 0 -258 -105.5t-100 -271.5v-193z" />
<glyph unicode="&#xff;" horiz-adv-x="1021" d="M66 -434l10 45q66 -17 106 -17q83 0 136.5 53t103.5 181l72 176l-416 981h51l389 -922l375 922h51l-479 -1175q-57 -141 -119.5 -201t-161.5 -60q-45 0 -118 17zM260 1309q0 23 14 38t37 15t37 -15t14 -38t-14 -37.5t-37 -14.5t-37 14.5t-14 37.5zM657 1309q0 23 14.5 38 t37.5 15t37 -15t14 -38t-14 -37.5t-37 -14.5t-37.5 14.5t-14.5 37.5z" />
<glyph unicode="&#x152;" horiz-adv-x="2064" d="M127 688q0 305 191 496.5t499 191.5h1086v-45h-762v-604h696v-45h-696v-637h794v-45h-1118q-204 0 -361 86t-243 242.5t-86 359.5zM178 688q0 -140 47 -259.5t131 -204t203.5 -132t259.5 -47.5h273v1286h-273q-140 0 -259.5 -47.5t-203.5 -132t-131 -204t-47 -259.5z" />
<glyph unicode="&#x153;" horiz-adv-x="1949" d="M113 492q0 228 129.5 373t332.5 145q163 0 283 -97.5t158 -259.5q40 163 153 260t271 97q183 0 298 -139t115 -359v-29h-813q5 -206 125.5 -334.5t309.5 -128.5q151 0 307 84l22 -38q-175 -91 -331 -91q-168 0 -291 96.5t-166 260.5q-38 -162 -158 -259.5t-283 -97.5 q-203 0 -332.5 145t-129.5 372zM162 492q0 -208 115 -340t298 -132t299.5 132.5t116.5 339.5q0 209 -116.5 341t-299.5 132t-298 -132t-115 -341zM1040 526h766q-2 194 -103.5 316.5t-262.5 122.5q-169 0 -279 -122t-121 -317z" />
<glyph unicode="&#x178;" horiz-adv-x="1185" d="M59 1376h60l473 -710l475 710h57l-506 -758v-618h-51v618zM342 1700q0 23 14 38t37 15t37 -15t14 -38t-14 -37t-37 -14t-37 14t-14 37zM739 1700q0 23 14.5 38t37.5 15t37 -15t14 -38t-14 -37t-37 -14t-37.5 14t-14.5 37z" />
<glyph unicode="&#x2c6;" horiz-adv-x="491" d="M-23 1202l248 242h41l248 -242l-29 -28l-239 227l-240 -227z" />
<glyph unicode="&#x2dc;" horiz-adv-x="491" d="M-23 1262q15 49 52.5 79.5t85.5 30.5q43 0 134 -41t126 -41q34 0 60 22t38 60l41 -16q-15 -49 -52 -79t-85 -30q-43 0 -134 41t-126 41q-34 0 -60.5 -22t-38.5 -60z" />
<glyph unicode="&#x2000;" horiz-adv-x="941" />
<glyph unicode="&#x2001;" horiz-adv-x="1882" />
<glyph unicode="&#x2002;" horiz-adv-x="941" />
<glyph unicode="&#x2003;" horiz-adv-x="1882" />
<glyph unicode="&#x2004;" horiz-adv-x="627" />
<glyph unicode="&#x2005;" horiz-adv-x="470" />
<glyph unicode="&#x2006;" horiz-adv-x="313" />
<glyph unicode="&#x2007;" horiz-adv-x="313" />
<glyph unicode="&#x2008;" horiz-adv-x="235" />
<glyph unicode="&#x2009;" horiz-adv-x="376" />
<glyph unicode="&#x200a;" horiz-adv-x="104" />
<glyph unicode="&#x2010;" horiz-adv-x="655" d="M63 481v45h529v-45h-529z" />
<glyph unicode="&#x2011;" horiz-adv-x="655" d="M63 481v45h529v-45h-529z" />
<glyph unicode="&#x2012;" horiz-adv-x="655" d="M63 481v45h529v-45h-529z" />
<glyph unicode="&#x2013;" horiz-adv-x="983" d="M63 481v45h857v-45h-857z" />
<glyph unicode="&#x2014;" horiz-adv-x="1966" d="M63 481v45h1840v-45h-1840z" />
<glyph unicode="&#x2018;" horiz-adv-x="464" d="M164 1075q0 94 47.5 178t134.5 142l21 -31q-161 -118 -152 -285q29 8 51.5 -8t22.5 -45q0 -25 -16 -41t-42 -16q-32 0 -49.5 28t-17.5 78z" />
<glyph unicode="&#x2019;" horiz-adv-x="464" d="M98 999q161 118 152 285q-30 -8 -53 8t-23 45q0 25 16 41.5t41 16.5q33 0 51.5 -28.5t18.5 -78.5q0 -94 -47.5 -177.5t-134.5 -141.5z" />
<glyph unicode="&#x201a;" horiz-adv-x="399" d="M98 -297q161 118 152 285q-30 -8 -53 8t-23 45q0 25 16 41t41 16q33 0 51.5 -28t18.5 -78q0 -94 -47.5 -178t-134.5 -142z" />
<glyph unicode="&#x201c;" horiz-adv-x="800" d="M164 1075q0 94 47.5 178t134.5 142l21 -31q-161 -118 -152 -285q29 8 51.5 -8t22.5 -45q0 -25 -16 -41t-42 -16q-32 0 -49.5 28t-17.5 78zM500 1075q0 94 47.5 178t134.5 142l20 -31q-160 -117 -151 -285q29 8 51.5 -8t22.5 -45q0 -25 -16 -41t-42 -16q-32 0 -49.5 28 t-17.5 78z" />
<glyph unicode="&#x201d;" horiz-adv-x="800" d="M98 999q161 118 152 285q-30 -8 -53 8t-23 45q0 25 16 41.5t41 16.5q33 0 51.5 -28.5t18.5 -78.5q0 -94 -47.5 -177.5t-134.5 -141.5zM434 999q161 118 152 285q-30 -8 -53 8t-23 45q0 25 16 41.5t41 16.5q33 0 51.5 -28.5t18.5 -78.5q0 -94 -47.5 -177.5t-134.5 -141.5z " />
<glyph unicode="&#x201e;" horiz-adv-x="800" d="M98 -297q161 118 152 285q-30 -8 -53 8t-23 45q0 25 16 41t41 16q33 0 51.5 -28t18.5 -78q0 -94 -47.5 -178t-134.5 -142zM434 -297q161 118 152 285q-30 -8 -53 8t-23 45q0 25 16 41t41 16q33 0 51.5 -28t18.5 -78q0 -94 -47.5 -178t-134.5 -142z" />
<glyph unicode="&#x2022;" horiz-adv-x="983" d="M197 590q0 123 86 209t209 86t208.5 -86t85.5 -209t-85.5 -209t-208.5 -86t-209 86t-86 209z" />
<glyph unicode="&#x2026;" horiz-adv-x="1966" d="M270 41q0 25 16.5 41t41.5 16q26 0 41.5 -16t15.5 -41q0 -26 -15.5 -41.5t-41.5 -15.5q-25 0 -41.5 15.5t-16.5 41.5zM926 41q0 25 16 41t41 16q26 0 41.5 -16t15.5 -41q0 -26 -15.5 -41.5t-41.5 -15.5q-25 0 -41 15.5t-16 41.5zM1581 41q0 25 16 41t41 16q26 0 42 -16 t16 -41q0 -26 -16 -41.5t-42 -15.5q-25 0 -41 15.5t-16 41.5z" />
<glyph unicode="&#x202f;" horiz-adv-x="376" />
<glyph unicode="&#x2039;" horiz-adv-x="595" d="M66 489v31l403 447l31 -27l-383 -436l383 -434l-31 -27z" />
<glyph unicode="&#x203a;" horiz-adv-x="595" d="M96 70l383 434l-383 436l31 27l403 -447v-31l-403 -446z" />
<glyph unicode="&#x205f;" horiz-adv-x="470" />
<glyph unicode="&#x20ac;" d="M80 537v41h168q-6 52 -6 110q0 83 8 143h-170v41h178q40 240 183 384.5t345 144.5q168 0 332 -90l-24 -39q-155 84 -306 84q-183 0 -312.5 -132t-168.5 -352h565v-41h-575q-8 -60 -8 -143q0 -58 6 -110h577v-41h-573q34 -235 166 -376t323 -141q151 0 306 84l24 -38 q-166 -91 -332 -91q-208 0 -353.5 153.5t-182.5 408.5h-170z" />
<glyph unicode="&#x2122;" horiz-adv-x="1904" d="M57 1335v41h682v-41h-319v-811h-45v811h-318zM961 524v852h47l342 -461l342 461h47v-852h-43v787l-330 -447h-31l-331 447v-787h-43z" />
<glyph unicode="&#x25fc;" horiz-adv-x="983" d="M0 0v983h983v-983h-983z" />
</font>
</defs>
</svg>
